<svg
    xmlns="http://www.w3.org/2000/svg"
    xmlns:xlink="http://www.w3.org/1999/xlink"
    x="0px"
    y="0px"
	viewBox="0 0 487.8 435.6"
    style="enable-background:new 0 0 487.8 435.6;"
    xml:space="preserve">
<style type="text/css">
	.st0{fill:#61DAFB;}
</style>
<path class="st0"
    d="M243.9,263.5c25.2,0,45.7-20.5,45.7-45.7c0-25.2-20.5-45.7-45.7-45.7c-25.2,0-45.7,20.5-45.7,45.7
	C198.2,243,218.6,263.5,243.9,263.5z M413.1,144.2c-8.3-3.2-17-6.2-26.2-8.8c2.3-9.3,4.1-18.4,5.5-27.1C400.2,57,390.9,20.8,366,6.5
	c-24.9-14.4-60.8-4.4-101.3,28.1c-6.9,5.6-13.9,11.7-20.8,18.3c-36.7-36.4-89.5-66.5-122-46.4c-33.7,18.1-34,78.8-20.9,128.9
	c-134.8,38.3-134.7,126.7,0,165c-13.2,50-12.8,110.8,20.9,128.9c38.8,21,87.5-13.8,122-46.4c6.9,6.6,13.9,12.7,20.8,18.3
	c34.7,27.2,70.4,44.5,101.3,28.1c24.9-14.4,34.2-50.5,26.3-101.7c-1.4-8.8-3.2-17.8-5.5-27.1c9.2-2.7,18-5.6,26.2-8.8
	C512.7,254.2,512.6,181.5,413.1,144.2z M277.3,50.1C310.3,23.6,339,14,356,23.8c24.3,12.9,21.8,67.4,11.5,106.5
	c-20.8-4.9-43.2-8.5-66.8-10.8C287,100.2,272.7,82.6,258,67C264.4,60.9,270.9,55.3,277.3,50.1z M172.5,294.5
	c-16.4-2.1-32-4.9-46.8-8.3c4.4-14.5,9.8-29.5,16.2-44.7C151,259.4,161.5,277.6,172.5,294.5z M125.7,149.5
	c14.7-3.5,30.4-6.2,46.8-8.3c-10.9,16.9-21.4,35.1-30.6,53C135.5,179,130,164,125.7,149.5z M152.5,217.8
	c12.8-26.8,28.9-54.7,45.7-79.2c29.7-2.3,61.8-2.3,91.5,0c16.8,24.5,32.9,52.4,45.7,79.2c-6.4,13.5-13.6,27-21.4,40.5
	c-7.8,13.5-15.9,26.4-24.4,38.7c-29.7,2.3-61.8,2.3-91.5,0C181.4,272.6,165.3,244.7,152.5,217.8z M346.1,241.5
	c6.4,15.2,11.8,30.2,16.2,44.7c-14.7,3.5-30.4,6.2-46.8,8.3C326.4,277.6,336.9,259.4,346.1,241.5z M331.4,167.3
	c-5.2-8.9-10.5-17.6-16-26.1c16.4,2.1,32,4.9,46.8,8.3c-4.4,14.5-9.8,29.5-16.2,44.7C341.5,185.2,336.6,176.3,331.4,167.3z
	 M244,81.2c10.4,11,20.6,23.2,30.6,36.4c-20.1-1-41.1-1-61.2,0C223.3,104.5,233.6,92.3,244,81.2z M131.9,23.8
	c28.4-14.8,71.2,17.9,98,43.2c-14.6,15.5-29,33.2-42.7,52.5c-23.5,2.2-46,5.9-66.8,10.8c-2.1-8.6-3.8-17-5-25.1
	C108.9,63.3,115,33.6,131.9,23.8z M106.3,281c-8.5-2.5-16.6-5.2-24.2-8.2c-105.4-41.9-61.9-93.6,24.2-118.2
	c6.1,20.4,14.2,41.7,24.1,63.2C120.6,239.3,112.5,260.6,106.3,281z M210.7,385.5c-33.1,26.5-61.8,36.1-78.7,26.3
	c-24.3-12.9-21.8-67.4-11.5-106.5c20.8,4.9,43.2,8.5,66.8,10.8c13.7,19.3,28.1,36.9,42.7,52.5C223.5,374.7,217.1,380.4,210.7,385.5z
	 M244,354.4c-10.4-11-20.6-23.2-30.6-36.4c20.1,1,41.1,1,61.2,0C264.6,331.2,254.3,343.4,244,354.4z M356,411.9
	c-23.3,14.6-69.3-14.8-98-43.2c14.6-15.5,29-33.2,42.7-52.5c23.5-2.2,46-5.9,66.8-10.8c2.1,8.6,3.8,17,5,25.1
	C379,372.4,373,402.1,356,411.9z M405.8,272.9c-7.6,3-15.8,5.7-24.2,8.2c-6.1-20.4-14.2-41.7-24.1-63.2
	c9.8-21.5,17.9-42.8,24.1-63.2C467.8,179.3,511.2,231,405.8,272.9z"/>
</svg>
